{
  "asset": {
    "extras": {
      "author": "2met7cen (https://sketchfab.com/workshop2met7cen)",
      "license": "CC-BY-4.0 (http://creativecommons.org/licenses/by/4.0/)",
      "source": "https://sketchfab.com/3d-models/extinguisher-dfd55dcd43d742ee9e4773d23a58679e",
      "title": "Extinguisher"
    },
    "generator": "gltfeditor.com",
    "version": "2.0"
  },
  "buffers": [
    {
      "uri": "data:application/octet-stream;base64,",
      "byteLength": 112848
    }
  ],
  "bufferViews": [
    {
      "buffer": 0,
      "byteOffset": 0,
      "byteLength": 4128,
      "byteStride": 24,
      "target": 34962
    },
    {
      "buffer": 0,
      "byteOffset": 4128,
      "byteLength": 2752,
      "byteStride": 16,
      "target": 34962
    },
    {
      "buffer": 0,
      "byteOffset": 6880,
      "byteLength": 5504,
      "byteStride": 32,
      "target": 34962
    },
    {
      "buffer": 0,
      "byteOffset": 12384,
      "byteLength": 1560,
      "target": 34963
    },
    {
      "buffer": 0,
      "byteOffset": 13944,
      "byteLength": 6240,
      "byteStride": 24,
      "target": 34962
    },
    {
      "buffer": 0,
      "byteOffset": 20184,
      "byteLength": 4160,
      "byteStride": 16,
      "target": 34962
    },
    {
      "buffer": 0,
      "byteOffset": 24344,
      "byteLength": 8320,
      "byteStride": 32,
      "target": 34962
    },
    {
      "buffer": 0,
      "byteOffset": 32664,
      "byteLength": 2736,
      "target": 34963
    },
    {
      "buffer": 0,
      "byteOffset": 35400,
      "byteLength": 22224,
      "byteStride": 24,
      "target": 34962
    },
    {
      "buffer": 0,
      "byteOffset": 57624,
      "byteLength": 14816,
      "byteStride": 16,
      "target": 34962
    },
    {
      "buffer": 0,
      "byteOffset": 72440,
      "byteLength": 29632,
      "byteStride": 32,
      "target": 34962
    },
    {
      "buffer": 0,
      "byteOffset": 102072,
      "byteLength": 10776,
      "target": 34963
    }
  ],
  "accessors": [
    {
      "bufferView": 0,
      "byteOffset": 0,
      "componentType": 5126,
      "normalized": false,
      "count": 172,
      "min": [
        -1,
        -1,
        -1
      ],
      "max": [
        1,
        1,
        1
      ],
      "type": "VEC3"
    },
    {
      "bufferView": 0,
      "byteOffset": 12,
      "componentType": 5126,
      "normalized": false,
      "count": 172,
      "min": [
        -0.1255895495414734,
        -0.031304098665714264,
        -0.01866898499429226
      ],
      "max": [
        0.033809222280979156,
        0.028455831110477448,
        0.01866898499429226
      ],
      "type": "VEC3"
    },
    {
      "bufferView": 1,
      "byteOffset": 0,
      "componentType": 5126,
      "normalized": false,
      "count": 172,
      "min": [
        -0.7071912884712219,
        -1,
        -1,
        1
      ],
      "max": [
        1,
        1,
        1,
        1
      ],
      "type": "VEC4"
    },
    {
      "bufferView": 2,
      "byteOffset": 0,
      "componentType": 5126,
      "normalized": false,
      "count": 172,
      "min": [
        0.0019233443308621645,
        0.15874360501766205
      ],
      "max": [
        0.9972330927848816,
        0.9884059429168701
      ],
      "type": "VEC2"
    },
    {
      "bufferView": 2,
      "byteOffset": 8,
      "componentType": 5126,
      "normalized": false,
      "count": 172,
      "min": [
        0.0019233443308621645,
        0.15874360501766205
      ],
      "max": [
        0.9972330927848816,
        0.9884059429168701
      ],
      "type": "VEC2"
    },
    {
      "bufferView": 2,
      "byteOffset": 16,
      "componentType": 5126,
      "normalized": false,
      "count": 172,
      "min": [
        0.0019233443308621645,
        0.15874360501766205
      ],
      "max": [
        0.9972330927848816,
        0.9884059429168701
      ],
      "type": "VEC2"
    },
    {
      "bufferView": 2,
      "byteOffset": 24,
      "componentType": 5126,
      "normalized": false,
      "count": 172,
      "min": [
        0.0019233443308621645,
        0.15874360501766205
      ],
      "max": [
        0.9972330927848816,
        0.9884059429168701
      ],
      "type": "VEC2"
    },
    {
      "bufferView": 3,
      "byteOffset": 0,
      "componentType": 5125,
      "normalized": false,
      "count": 390,
      "min": [
        0
      ],
      "max": [
        171
      ],
      "type": "SCALAR"
    },
    {
      "bufferView": 4,
      "byteOffset": 0,
      "componentType": 5126,
      "normalized": false,
      "count": 260,
      "min": [
        -1,
        -1,
        -1
      ],
      "max": [
        1,
        1,
        1
      ],
      "type": "VEC3"
    },
    {
      "bufferView": 4,
      "byteOffset": 12,
      "componentType": 5126,
      "normalized": false,
      "count": 260,
      "min": [
        -0.10977581143379211,
        -0.05388176068663597,
        -0.012095103040337563
      ],
      "max": [
        0.029352713376283646,
        0.029352713376283646,
        0.012095103040337563
      ],
      "type": "VEC3"
    },
    {
      "bufferView": 5,
      "byteOffset": 0,
      "componentType": 5126,
      "normalized": false,
      "count": 260,
      "min": [
        -1,
        -0.866025447845459,
        -1,
        -1
      ],
      "max": [
        0.8660255074501038,
        1,
        1,
        1
      ],
      "type": "VEC4"
    },
    {
      "bufferView": 6,
      "byteOffset": 0,
      "componentType": 5126,
      "normalized": false,
      "count": 260,
      "min": [
        0.0019196828361600637,
        0.12419676780700684
      ],
      "max": [
        0.9874714612960815,
        0.9886656403541565
      ],
      "type": "VEC2"
    },
    {
      "bufferView": 6,
      "byteOffset": 8,
      "componentType": 5126,
      "normalized": false,
      "count": 260,
      "min": [
        0.0019196828361600637,
        0.12419676780700684
      ],
      "max": [
        0.9874714612960815,
        0.9886656403541565
      ],
      "type": "VEC2"
    },
    {
      "bufferView": 6,
      "byteOffset": 16,
      "componentType": 5126,
      "normalized": false,
      "count": 260,
      "min": [
        0.0019196828361600637,
        0.12419676780700684
      ],
      "max": [
        0.9874714612960815,
        0.9886656403541565
      ],
      "type": "VEC2"
    },
    {
      "bufferView": 6,
      "byteOffset": 24,
      "componentType": 5126,
      "normalized": false,
      "count": 260,
      "min": [
        0.0019196828361600637,
        0.12419676780700684
      ],
      "max": [
        0.9874714612960815,
        0.9886656403541565
      ],
      "type": "VEC2"
    },
    {
      "bufferView": 7,
      "byteOffset": 0,
      "componentType": 5125,
      "normalized": false,
      "count": 684,
      "min": [
        0
      ],
      "max": [
        259
      ],
      "type": "SCALAR"
    },
    {
      "bufferView": 8,
      "byteOffset": 0,
      "componentType": 5126,
      "normalized": false,
      "count": 926,
      "min": [
        -1,
        -1,
        -1
      ],
      "max": [
        1,
        1,
        1
      ],
      "type": "VEC3"
    },
    {
      "bufferView": 8,
      "byteOffset": 12,
      "componentType": 5126,
      "normalized": false,
      "count": 926,
      "min": [
        -0.08260343223810196,
        -0.25337547063827515,
        -0.08260343223810196
      ],
      "max": [
        0.09496566653251648,
        0.2602432370185852,
        0.08260343223810196
      ],
      "type": "VEC3"
    },
    {
      "bufferView": 9,
      "byteOffset": 0,
      "componentType": 5126,
      "normalized": false,
      "count": 926,
      "min": [
        -1,
        -1,
        -1,
        1
      ],
      "max": [
        1,
        1,
        1,
        1
      ],
      "type": "VEC4"
    },
    {
      "bufferView": 10,
      "byteOffset": 0,
      "componentType": 5126,
      "normalized": false,
      "count": 926,
      "min": [
        0.0019220563117414713,
        0.0019215837819501758
      ],
      "max": [
        0.9979233145713806,
        0.9980106949806213
      ],
      "type": "VEC2"
    },
    {
      "bufferView": 10,
      "byteOffset": 8,
      "componentType": 5126,
      "normalized": false,
      "count": 926,
      "min": [
        0.0019220563117414713,
        0.0019215837819501758
      ],
      "max": [
        0.9979233145713806,
        0.9980106949806213
      ],
      "type": "VEC2"
    },
    {
      "bufferView": 10,
      "byteOffset": 16,
      "componentType": 5126,
      "normalized": false,
      "count": 926,
      "min": [
        0.0019220563117414713,
        0.0019215837819501758
      ],
      "max": [
        0.9979233145713806,
        0.9980106949806213
      ],
      "type": "VEC2"
    },
    {
      "bufferView": 10,
      "byteOffset": 24,
      "componentType": 5126,
      "normalized": false,
      "count": 926,
      "min": [
        0.0019220563117414713,
        0.0019215837819501758
      ],
      "max": [
        0.9979233145713806,
        0.9980106949806213
      ],
      "type": "VEC2"
    },
    {
      "bufferView": 11,
      "byteOffset": 0,
      "componentType": 5125,
      "normalized": false,
      "count": 2694,
      "min": [
        0
      ],
      "max": [
        925
      ],
      "type": "SCALAR"
    }
  ],
  "scene": 0,
  "scenes": [
    {
      "nodes": [
        38
      ]
    }
  ],
  "nodes": [
    {
      "name": "Object_4"
    },
    {
      "name": "Object_6"
    },
    {
      "name": "Extinguisher_10_low_0",
      "children": [
        1
      ],
      "matrix": [
        6.319206136140565e-7,
        -1,
        -6.35395736026112e-10,
        0,
        0.38268470764160156,
        2.572724895344436e-7,
        -0.9238789677619934,
        0,
        0.9238789677619934,
        5.613368330159574e-7,
        0.38268473744392395,
        0,
        -0.17203356325626373,
        0,
        0.08373391628265381,
        1
      ]
    },
    {
      "name": "Object_8"
    },
    {
      "name": "Extinguisher_11_low_1",
      "children": [
        3
      ],
      "matrix": [
        6.319206136140565e-7,
        -1,
        -6.35395736026112e-10,
        0,
        0.38268470764160156,
        2.572724895344436e-7,
        -0.9238789677619934,
        0,
        0.9238789677619934,
        5.613368330159574e-7,
        0.38268473744392395,
        0,
        -0.17438484728336334,
        0,
        0.08373391628265381,
        1
      ]
    },
    {
      "name": "Object_10"
    },
    {
      "name": "Extinguisher_12_low_2",
      "children": [
        5
      ],
      "matrix": [
        1,
        0,
        0,
        0,
        0,
        1,
        0,
        0,
        0,
        0,
        1,
        0,
        -0.2485237419605255,
        0,
        0.011616706848144531,
        1
      ]
    },
    {
      "name": "Object_12"
    },
    {
      "name": "Extinguisher_13_low_3",
      "children": [
        7
      ],
      "matrix": [
        3.713767000590451e-7,
        0.9999999403953552,
        1.9092350313568152e-13,
        0,
        -0.9999999403953552,
        3.713767000590451e-7,
        0.000010311601727153175,
        0,
        0.000010311601727153175,
        -3.66773581991775e-12,
        1,
        0,
        -0.2538602650165558,
        0.001293361303396523,
        0.01161658763885498,
        1
      ]
    },
    {
      "name": "Object_14"
    },
    {
      "name": "Extinguisher_14_low_4",
      "children": [
        9
      ],
      "matrix": [
        6.319206136140565e-7,
        -1,
        -6.35395736026112e-10,
        0,
        0.38268470764160156,
        2.572724895344436e-7,
        -0.9238789677619934,
        0,
        0.9238789677619934,
        5.613368330159574e-7,
        0.38268473744392395,
        0,
        -0.17031361162662506,
        0.0018528106156736612,
        0.08373391628265381,
        1
      ]
    },
    {
      "name": "Object_16"
    },
    {
      "name": "Extinguisher_15_low_5",
      "children": [
        11
      ],
      "matrix": [
        1,
        0,
        0,
        0,
        0,
        1,
        0,
        0,
        0,
        0,
        1,
        0,
        -0.17203332483768463,
        0,
        0.08739662170410156,
        1
      ]
    },
    {
      "name": "Object_18"
    },
    {
      "name": "Extinguisher_16_low_6",
      "children": [
        13
      ],
      "matrix": [
        1,
        0,
        0,
        0,
        0,
        1,
        0,
        0,
        0,
        0,
        1,
        0,
        -0.17203332483768463,
        0,
        0.08739662170410156,
        1
      ]
    },
    {
      "name": "Object_20"
    },
    {
      "name": "Extinguisher_17_low_7",
      "children": [
        15
      ],
      "matrix": [
        1,
        0,
        0,
        0,
        0,
        1,
        0,
        0,
        0,
        0,
        1,
        0,
        -0.1645209938287735,
        0,
        0,
        1
      ]
    },
    {
      "name": "Object_22"
    },
    {
      "name": "Extinguisher_18_low_8",
      "children": [
        17
      ],
      "matrix": [
        1,
        0,
        0,
        0,
        0,
        1,
        0,
        0,
        0,
        0,
        1,
        0,
        -0.1645209938287735,
        0,
        0,
        1
      ]
    },
    {
      "name": "Object_24",
      "mesh": 0
    },
    {
      "name": "Extinguisher_1_low_9",
      "children": [
        19
      ],
      "matrix": [
        1,
        0,
        0,
        0,
        0,
        1,
        0,
        0,
        0,
        0,
        1,
        0,
        -0.1416330486536026,
        0.346158891916275,
        0,
        1
      ]
    },
    {
      "name": "Object_26",
      "mesh": 1
    },
    {
      "name": "Extinguisher_2_low_10",
      "children": [
        21
      ],
      "matrix": [
        1,
        0,
        0,
        0,
        0,
        1,
        0,
        0,
        0,
        0,
        1,
        0,
        -0.1416330486536026,
        0.33052101731300354,
        0,
        1
      ]
    },
    {
      "name": "Object_28",
      "mesh": 2
    },
    {
      "name": "Extinguisher_3_low_11",
      "children": [
        23
      ],
      "matrix": [
        1,
        0,
        0,
        0,
        0,
        1,
        0,
        0,
        0,
        0,
        1,
        0,
        -0.1416330486536026,
        0.05631370097398758,
        0,
        1
      ]
    },
    {
      "name": "Object_30"
    },
    {
      "name": "Extinguisher_5_low_12",
      "children": [
        25
      ],
      "matrix": [
        1,
        0,
        0,
        0,
        0,
        1,
        0,
        0,
        0,
        0,
        1,
        0,
        -0.17018653452396393,
        0,
        0,
        1
      ]
    },
    {
      "name": "Object_32"
    },
    {
      "name": "Extinguisher_6_low_13",
      "children": [
        27
      ],
      "matrix": [
        1,
        0,
        0,
        0,
        0,
        1,
        0,
        0,
        0,
        0,
        1,
        0,
        -0.17018653452396393,
        0,
        0,
        1
      ]
    },
    {
      "name": "Object_34"
    },
    {
      "name": "Extinguisher_7_low_14",
      "children": [
        29
      ],
      "matrix": [
        1,
        0,
        0,
        0,
        0,
        1,
        0,
        0,
        0,
        0,
        1,
        0,
        -0.17018653452396393,
        0,
        0,
        1
      ]
    },
    {
      "name": "Object_36"
    },
    {
      "name": "Extinguisher_8_low_15",
      "children": [
        31
      ],
      "matrix": [
        1,
        0,
        0,
        0,
        0,
        1,
        0,
        0,
        0,
        0,
        1,
        0,
        -0.17018653452396393,
        0,
        0,
        1
      ]
    },
    {
      "name": "Object_38"
    },
    {
      "name": "Extinguisher_9_low_16",
      "children": [
        33
      ],
      "matrix": [
        1,
        0,
        0,
        0,
        0,
        1,
        0,
        0,
        0,
        0,
        1,
        0,
        -0.15520860254764557,
        0,
        0.09444296360015869,
        1
      ]
    },
    {
      "name": "Extinguisher_4_low_17",
      "children": [
        0,
        2,
        4,
        6,
        8,
        10,
        12,
        14,
        16,
        18,
        20,
        22,
        24,
        26,
        28,
        30,
        32,
        34
      ]
    },
    {
      "name": "GLTF_SceneRootNode",
      "children": [
        35
      ],
      "matrix": [
        1,
        0,
        0,
        0,
        0,
        3.422854177870249e-8,
        0.9999999403953552,
        0,
        0,
        -0.9999999403953552,
        3.422854177870249e-8,
        0,
        0,
        0,
        0,
        1
      ]
    },
    {
      "name": "root",
      "children": [
        36
      ]
    },
    {
      "name": "Sketchfab_model",
      "children": [
        37
      ],
      "matrix": [
        1,
        0,
        0,
        0,
        0,
        3.422854177870249e-8,
        -0.9999999403953552,
        0,
        0,
        0.9999999403953552,
        3.422854177870249e-8,
        0,
        0,
        0,
        0,
        1
      ]
    }
  ],
  "meshes": [
    {
      "primitives": [
        {
          "material": 0,
          "mode": 4,
          "attributes": {
            "NORMAL": 0,
            "POSITION": 1,
            "TANGENT": 2,
            "TEXCOORD_0": 3,
            "TEXCOORD_1": 4,
            "TEXCOORD_2": 5,
            "TEXCOORD_3": 6
          },
          "indices": 7
        }
      ]
    },
    {
      "primitives": [
        {
          "material": 0,
          "mode": 4,
          "attributes": {
            "NORMAL": 8,
            "POSITION": 9,
            "TANGENT": 10,
            "TEXCOORD_0": 11,
            "TEXCOORD_1": 12,
            "TEXCOORD_2": 13,
            "TEXCOORD_3": 14
          },
          "indices": 15
        }
      ]
    },
    {
      "primitives": [
        {
          "material": 0,
          "mode": 4,
          "attributes": {
            "NORMAL": 16,
            "POSITION": 17,
            "TANGENT": 18,
            "TEXCOORD_0": 19,
            "TEXCOORD_1": 20,
            "TEXCOORD_2": 21,
            "TEXCOORD_3": 22
          },
          "indices": 23
        }
      ]
    }
  ],
  "materials": [
    {
      "name": "Material",
      "pbrMetallicRoughness": {
        "baseColorFactor": [
          1,
          1,
          1,
          1
        ],
        "metallicFactor": 1,
        "roughnessFactor": 1,
        "baseColorTexture": {
          "index": 0,
          "texCoord": 0
        },
        "metallicRoughnessTexture": {
          "index": 1,
          "texCoord": 1
        }
      },
      "emissiveFactor": [
        0,
        0,
        0
      ],
      "alphaMode": "BLEND",
      "doubleSided": true,
      "normalTexture": {
        "index": 2,
        "texCoord": 2,
        "scale": 1
      },
      "occlusionTexture": {
        "index": 1,
        "texCoord": 0,
        "strength": 1
      }
    }
  ],
  "textures": [
    {
      "sampler": 0,
      "name": "base.jpg",
      "source": 0
    },
    {
      "sampler": 1,
      "name": "textures/Material_metallicRoughness.jpg",
      "source": 1
    },
    {
      "sampler": 2,
      "name": "textures/Material_normal.jpg",
      "source": 2
    }
  ],
  "samplers": [
    {
      "magFilter": 9729,
      "minFilter": 9987,
      "wrapS": 33071,
      "wrapT": 33071
    },
    {
      "magFilter": 9729,
      "minFilter": 9987,
      "wrapS": 10497,
      "wrapT": 10497
    },
    {
      "magFilter": 9729,
      "minFilter": 9987,
      "wrapS": 10497,
      "wrapT": 10497
    }
  ],
  "images": [
    {
      "uri": "data:image/jpeg;base64,",
      "mimeType": "image/jpeg",
      "name": "base.jpg"
    },
    {
      "uri": "data:image/jpeg;base64,",
      "mimeType": "image/jpeg",
      "name": "textures/Material_metallicRoughness.jpg"
    },
    {
      "uri": "data:image/jpeg;base64,",
      "mimeType": "image/jpeg",
      "name": "textures/Material_normal.jpg"
    }
  ]
}